<?xml version="1.0" encoding="UTF-8" standalone="no"?>
<!-- Created with Inkscape (http://www.inkscape.org/) -->
<svg
   xmlns:dc="http://purl.org/dc/elements/1.1/"
   xmlns:cc="http://creativecommons.org/ns#"
   xmlns:rdf="http://www.w3.org/1999/02/22-rdf-syntax-ns#"
   xmlns:svg="http://www.w3.org/2000/svg"
   xmlns="http://www.w3.org/2000/svg"
   xmlns:sodipodi="http://sodipodi.sourceforge.net/DTD/sodipodi-0.dtd"
   xmlns:inkscape="http://www.inkscape.org/namespaces/inkscape"
   id="svg2"
   sodipodi:version="0.32"
   inkscape:version="0.46"
   width="531.94153"
   height="286.09653"
   xml:space="preserve"
   sodipodi:docname="Université de Nantes.svg"
   version="1.0"
   inkscape:output_extension="org.inkscape.output.svg.inkscape"><metadata
     id="metadata7"><rdf:RDF><cc:Work
         rdf:about=""><dc:format>image/svg+xml</dc:format><dc:type
           rdf:resource="http://purl.org/dc/dcmitype/StillImage" /></cc:Work></rdf:RDF></metadata><defs
     id="defs5"><inkscape:perspective
       sodipodi:type="inkscape:persp3d"
       inkscape:vp_x="0 : 526.18109 : 1"
       inkscape:vp_y="0 : 1000 : 0"
       inkscape:vp_z="744.09448 : 526.18109 : 1"
       inkscape:persp3d-origin="372.04724 : 350.78739 : 1"
       id="perspective9" /></defs><sodipodi:namedview
     inkscape:window-height="726"
     inkscape:window-width="1015"
     inkscape:pageshadow="2"
     inkscape:pageopacity="0.0"
     guidetolerance="10.0"
     gridtolerance="10.0"
     objecttolerance="10.0"
     borderopacity="1.0"
     bordercolor="#666666"
     pagecolor="#ffffff"
     id="base"
     showgrid="false"
     inkscape:zoom="1.72669"
     inkscape:cx="265.97076"
     inkscape:cy="143.04827"
     inkscape:window-x="0"
     inkscape:window-y="25"
     inkscape:current-layer="g11" /><g
     id="g11"
     inkscape:groupmode="layer"
     inkscape:label="Nantes"
     transform="matrix(1.25,0,0,-1.25,-0.2509762,286.90462)"><g
       id="g13"
       transform="scale(0.1,0.1)"><path
         d="M 1210.56,455.977 L 3009.41,455.977 L 3009.41,2295.237 L 1210.56,2295.237 L 1210.56,455.977 z"
         style="fill:#163565;fill-opacity:1;fill-rule:nonzero;stroke:none"
         id="path15" /><path
         d="M 2107.96,1033.12 C 2064.41,992.852 2006.21,950.664 1892.4,950.664 C 1828.41,950.664 1774.41,967.109 1719.39,1019.82 C 1671.19,1066.86 1638.8,1163.65 1638.8,1328.69 L 1638.8,1489.24 C 1638.8,1668.11 1638.8,1700.18 1640.97,1736.84 C 1643.2,1776.99 1652.26,1797.6 1682.55,1802.19 C 1695.97,1804.53 1702.73,1805.66 1710.6,1805.66 C 1715.07,1805.66 1719.57,1807.99 1719.57,1812.52 C 1719.57,1819.43 1713.9,1821.7 1701.64,1821.7 C 1668,1821.7 1600.56,1818.24 1590.46,1818.24 C 1580.41,1818.24 1511.97,1821.7 1461.46,1821.7 C 1449.18,1821.7 1443.49,1819.43 1443.49,1812.52 C 1443.49,1807.99 1448.02,1805.66 1452.48,1805.66 C 1462.61,1805.66 1481.71,1804.53 1490.66,1802.19 C 1527.67,1794.2 1536.62,1775.88 1538.88,1736.84 C 1541.17,1700.18 1541.17,1668.11 1541.17,1489.24 L 1541.17,1321.86 C 1541.17,1154.47 1583.86,1074.24 1638.8,1020.35 C 1718.47,943.535 1831.71,938.906 1869.94,938.906 C 1936.11,938.906 2020.19,950.391 2100.99,1023.77 C 2104,1026.46 2106.62,1029.36 2109.49,1032.23 L 2107.96,1033.12"
         style="fill:#ffffff;fill-opacity:1;fill-rule:nonzero;stroke:none"
         id="path17" /><path
         d="M 2105.17,1727.44 C 2148.77,1767.73 2206.99,1809.98 2320.86,1809.98 C 2384.75,1809.98 2438.87,1793.55 2493.81,1740.82 C 2542.03,1693.81 2574.41,1596.99 2574.41,1431.86 L 2574.41,1271.35 C 2574.41,1092.54 2574.41,1060.45 2572.11,1023.77 C 2569.98,983.613 2560.96,962.988 2530.7,958.398 C 2517.19,956.113 2510.47,954.961 2502.56,954.961 C 2498.2,954.961 2493.65,952.656 2493.65,948.105 C 2493.65,941.23 2499.26,938.906 2511.54,938.906 C 2545.21,938.906 2612.56,942.363 2622.66,942.363 C 2632.77,942.363 2701.25,938.906 2751.72,938.906 C 2764.04,938.906 2769.71,941.23 2769.71,948.105 C 2769.71,952.656 2765.2,954.961 2760.72,954.961 C 2750.62,954.961 2731.5,956.113 2722.52,958.398 C 2685.51,966.426 2676.56,984.805 2674.26,1023.77 C 2672.05,1060.45 2672.05,1092.54 2672.05,1271.35 L 2672.05,1438.77 C 2672.05,1606.15 2629.39,1686.45 2574.41,1740.29 C 2494.73,1817.09 2381.46,1821.7 2343.28,1821.7 C 2277.09,1821.7 2192.93,1810.25 2112.18,1736.84 C 2109.23,1734.2 2106.52,1731.29 2103.67,1728.44 L 2105.17,1727.44"
         style="fill:#d1cd11;fill-opacity:1;fill-rule:nonzero;stroke:none"
         id="path19" /><path
         d="M 100.699,6.46484 C 44.5859,6.46484 2.00781,45.625 2.00781,103.73 L 2.00781,290.352 L 43.8047,290.352 L 43.8047,105.723 C 43.8047,68.1836 66.2461,44.8047 100.699,44.8047 C 135.133,44.8047 157.945,68.1836 157.945,105.723 L 157.945,290.352 L 199.742,290.352 L 199.742,103.73 C 199.742,45.625 156.793,6.46484 100.699,6.46484"
         style="fill:#163565;fill-opacity:1;fill-rule:nonzero;stroke:none"
         id="path21" /><path
         d="M 436.578,8.84766 L 309.254,206.953 L 309.254,8.84766 L 267.457,8.84766 L 267.457,290.352 L 305.777,290.352 L 433.102,92.6562 L 433.102,290.352 L 474.879,290.352 L 474.879,8.84766 L 436.578,8.84766"
         style="fill:#163565;fill-opacity:1;fill-rule:nonzero;stroke:none"
         id="path23" /><path
         d="M 546.871,8.84766 L 588.6483,8.84766 L 588.6483,290.35166 L 546.871,290.35166 L 546.871,8.84766 z"
         style="fill:#163565;fill-opacity:1;fill-rule:nonzero;stroke:none"
         id="path25" /><path
         d="M 749.625,8.84766 L 717.125,8.84766 L 626.578,290.352 L 669.918,290.352 L 733.375,85.5469 L 796.832,290.352 L 840.953,290.352 L 749.625,8.84766"
         style="fill:#163565;fill-opacity:1;fill-rule:nonzero;stroke:none"
         id="path27" /><path
         d="M 878.883,8.84766 L 878.883,290.352 L 1054.96,290.352 L 1054.96,252.012 L 920.68,252.012 L 920.68,169.785 L 1035.23,169.785 L 1035.23,131.816 L 920.68,131.816 L 920.68,47.207 L 1054.96,47.207 L 1054.96,8.84766 L 878.883,8.84766"
         style="fill:#163565;fill-opacity:1;fill-rule:nonzero;stroke:none"
         id="path29" /><path
         d="M 1262.75,207.734 C 1262.75,180.059 1243.8,163.848 1215.93,163.848 L 1154.02,163.848 L 1154.02,252.012 L 1215.93,252.012 C 1243.8,252.012 1262.75,235.391 1262.75,207.734 z M 1313.08,8.84766 L 1249.61,133.398 C 1280.56,142.109 1304.57,167.793 1304.57,208.105 C 1304.57,255.957 1271.29,290.352 1219.04,290.352 L 1112.22,290.352 L 1112.22,8.84766 L 1154.02,8.84766 L 1154.02,127.48 L 1206.27,127.48 L 1264.31,8.84766 L 1313.08,8.84766"
         style="fill:#163565;fill-opacity:1;fill-rule:nonzero;stroke:none"
         id="path31" /><path
         d="M 1438.82,6.46484 C 1397.44,6.46484 1367.63,16.3477 1341.3,43.6328 L 1369.18,71.7188 C 1389.31,51.1719 1411.36,44.8047 1439.61,44.8047 C 1475.6,44.8047 1496.5,60.6445 1496.5,87.9297 C 1496.5,100.176 1493,110.469 1485.66,117.188 C 1478.71,123.906 1471.73,126.68 1455.46,129.043 L 1422.96,133.789 C 1400.52,136.953 1382.73,144.844 1370.72,156.328 C 1357.18,169.375 1350.6,187.168 1350.6,210.098 C 1350.6,259.121 1385.43,292.754 1442.71,292.754 C 1479.08,292.754 1504.62,283.242 1528.24,260.723 L 1501.52,233.848 C 1484.51,250.449 1464.76,255.566 1441.54,255.566 C 1409.04,255.566 1391.25,236.602 1391.25,211.699 C 1391.25,201.426 1394.33,192.324 1401.68,185.605 C 1408.65,179.258 1419.88,174.531 1432.65,172.539 L 1464,167.793 C 1489.53,163.848 1503.86,157.539 1515.46,146.836 C 1530.56,133.398 1537.91,113.203 1537.91,89.1406 C 1537.91,37.3242 1496.5,6.46484 1438.82,6.46484"
         style="fill:#163565;fill-opacity:1;fill-rule:nonzero;stroke:none"
         id="path33" /><path
         d="M 1594.02,8.84766 L 1635.8169,8.84766 L 1635.8169,290.35166 L 1594.02,290.35166 L 1594.02,8.84766 z"
         style="fill:#163565;fill-opacity:1;fill-rule:nonzero;stroke:none"
         id="path35" /><path
         d="M 1801.05,252.012 L 1801.05,8.84766 L 1759.25,8.84766 L 1759.25,252.012 L 1683.41,252.012 L 1683.41,290.352 L 1876.89,290.352 L 1876.89,252.012 L 1801.05,252.012"
         style="fill:#163565;fill-opacity:1;fill-rule:nonzero;stroke:none"
         id="path37" /><path
         d="M 2018.51,317.656 L 1988.73,317.656 L 2017.73,381.699 L 2061.46,381.699 L 2018.51,317.656 z M 1924.49,8.84766 L 1924.49,290.352 L 2100.56,290.352 L 2100.56,252.012 L 1966.29,252.012 L 1966.29,169.785 L 2080.82,169.785 L 2080.82,131.816 L 1966.29,131.816 L 1966.29,47.207 L 2100.56,47.207 L 2100.56,8.84766 L 1924.49,8.84766"
         style="fill:#163565;fill-opacity:1;fill-rule:nonzero;stroke:none"
         id="path39" /><path
         d="M 2404.71,151.582 C 2404.71,112.832 2404.32,82.4023 2390,66.1914 C 2378.4,53.125 2362.91,47.207 2343.18,47.207 L 2292.5,47.207 L 2292.5,252.012 L 2343.18,252.012 C 2362.91,252.012 2378.4,246.074 2390,233.047 C 2404.32,216.836 2404.71,190.332 2404.71,151.582 z M 2446.5,151.582 C 2446.5,192.324 2448.44,233.418 2418.65,263.848 C 2401.23,281.68 2376.07,290.352 2347.44,290.352 L 2250.68,290.352 L 2250.68,8.84766 L 2347.44,8.84766 C 2376.07,8.84766 2401.23,17.5586 2418.65,35.332 C 2448.44,65.7812 2446.5,110.859 2446.5,151.582"
         style="fill:#163565;fill-opacity:1;fill-rule:nonzero;stroke:none"
         id="path41" /><path
         d="M 2508.42,8.84766 L 2508.42,290.352 L 2684.49,290.352 L 2684.49,252.012 L 2550.21,252.012 L 2550.21,169.785 L 2664.75,169.785 L 2664.75,131.816 L 2550.21,131.816 L 2550.21,47.207 L 2684.49,47.207 L 2684.49,8.84766 L 2508.42,8.84766"
         style="fill:#163565;fill-opacity:1;fill-rule:nonzero;stroke:none"
         id="path43" /><path
         d="M 3003.75,8.84766 L 2876.43,206.953 L 2876.43,8.84766 L 2834.65,8.84766 L 2834.65,290.352 L 2872.95,290.352 L 3000.25,92.6562 L 3000.25,290.352 L 3042.07,290.352 L 3042.07,8.84766 L 3003.75,8.84766"
         style="fill:#163565;fill-opacity:1;fill-rule:nonzero;stroke:none"
         id="path45" /><path
         d="M 3241.72,101.738 L 3156.97,101.738 L 3199.94,226.699 L 3241.72,101.738 z M 3316.82,8.84766 L 3215.8,290.352 L 3182.13,290.352 L 3081.13,8.84766 L 3125.64,8.84766 L 3144.59,65.3906 L 3253.34,65.3906 L 3272.3,8.84766 L 3316.82,8.84766"
         style="fill:#163565;fill-opacity:1;fill-rule:nonzero;stroke:none"
         id="path47" /><path
         d="M 3524.98,8.84766 L 3397.68,206.953 L 3397.68,8.84766 L 3355.88,8.84766 L 3355.88,290.352 L 3394.2,290.352 L 3521.52,92.6562 L 3521.52,290.352 L 3563.3,290.352 L 3563.3,8.84766 L 3524.98,8.84766"
         style="fill:#163565;fill-opacity:1;fill-rule:nonzero;stroke:none"
         id="path49" /><path
         d="M 3728.54,252.012 L 3728.54,8.84766 L 3686.74,8.84766 L 3686.74,252.012 L 3610.9,252.012 L 3610.9,290.352 L 3804.39,290.352 L 3804.39,252.012 L 3728.54,252.012"
         style="fill:#163565;fill-opacity:1;fill-rule:nonzero;stroke:none"
         id="path51" /><path
         d="M 3851.97,8.84766 L 3851.97,290.352 L 4028.07,290.352 L 4028.07,252.012 L 3893.77,252.012 L 3893.77,169.785 L 4008.32,169.785 L 4008.32,131.816 L 3893.77,131.816 L 3893.77,47.207 L 4028.07,47.207 L 4028.07,8.84766 L 3851.97,8.84766"
         style="fill:#163565;fill-opacity:1;fill-rule:nonzero;stroke:none"
         id="path53" /><path
         d="M 4158.48,6.46484 C 4117.07,6.46484 4087.27,16.3477 4060.96,43.6328 L 4088.81,71.7188 C 4108.93,51.1719 4131,44.8047 4159.24,44.8047 C 4195.23,44.8047 4216.13,60.6445 4216.13,87.9297 C 4216.13,100.176 4212.66,110.469 4205.29,117.188 C 4198.34,123.906 4191.35,126.68 4175.12,129.043 L 4142.6,133.789 C 4120.18,136.953 4102.36,144.844 4090.35,156.328 C 4076.82,169.375 4070.23,187.168 4070.23,210.098 C 4070.23,259.121 4105.08,292.754 4162.34,292.754 C 4198.71,292.754 4224.26,283.242 4247.85,260.723 L 4221.17,233.848 C 4204.12,250.449 4184.39,255.566 4161.19,255.566 C 4128.67,255.566 4110.86,236.602 4110.86,211.699 C 4110.86,201.426 4113.96,192.324 4121.33,185.605 C 4128.28,179.258 4139.51,174.531 4152.29,172.539 L 4183.61,167.793 C 4209.16,163.848 4223.48,157.539 4235.08,146.836 C 4250.18,133.398 4257.54,113.203 4257.54,89.1406 C 4257.54,37.3242 4216.13,6.46484 4158.48,6.46484"
         style="fill:#163565;fill-opacity:1;fill-rule:nonzero;stroke:none"
         id="path55" /></g></g></svg>